<svg xmlns="http://www.w3.org/2000/svg" viewBox="0 0 29 48" fill="none">
  <g clip-path="url(#clip0_10863_8474)">
    <path d="M8.80469 13.8405H14.6824C16.1122 13.8405 17.9979 13.8405 18.9716 14.4323C20.0395 15.0682 20.8779 16.2253 20.8779 17.8181C20.8779 19.5434 19.9718 20.8388 18.4715 21.4512V21.4983C20.469 21.9075 21.5575 23.4061 21.5575 25.4052C21.5575 27.79 19.8542 30.0629 16.6329 30.0629H8.80469V13.8405ZM10.961 20.8152H15.2767C17.7272 20.8152 18.7274 19.929 18.7274 18.2244C18.7274 15.975 17.1389 15.6571 15.2767 15.6571H10.961V20.8123V20.8152ZM10.961 28.2434H16.3652C18.2244 28.2434 19.407 27.1069 19.407 25.3375C19.407 23.2236 17.7037 22.6347 15.8886 22.6347H10.964V28.2463L10.961 28.2434Z" fill="#0D0D0D"/>
    <path d="M27.0735 21.9546C27.0735 28.7674 21.5546 34.2907 14.7443 34.2907C7.93402 34.2907 2.41812 28.7704 2.41812 21.9546C2.41812 15.1389 7.93697 9.62154 14.7443 9.62154C21.5517 9.62154 27.0735 15.1448 27.0735 21.9576V21.9546ZM14.7443 7.73727C6.90439 7.73727 0.547119 14.0996 0.547119 21.9488C0.547119 29.7979 6.90439 36.1573 14.7443 36.1573C22.5843 36.1573 28.9445 29.795 28.9445 21.9488C28.9445 14.1026 22.5872 7.73727 14.7443 7.73727Z" fill="#0D0D0D"/>
    <path d="M28.9149 39.1544H0.576416V41.0181H28.9149V39.1544Z" fill="#0D0D0D"/>
    <path d="M27.9148 37.1024C27.9501 37.1024 27.9825 37.1024 28.0148 37.0994C28.0442 37.0994 28.0737 37.0906 28.0972 37.0817C28.1237 37.07 28.1413 37.0523 28.156 37.0317C28.1707 37.0081 28.1766 36.9787 28.1766 36.9404C28.1766 36.908 28.1707 36.8786 28.159 36.8609C28.1472 36.8403 28.1295 36.8256 28.109 36.8168C28.0884 36.805 28.0678 36.7991 28.0384 36.7932C28.0119 36.7932 27.9883 36.7903 27.9619 36.7903H27.7589V37.1053H27.9177L27.9148 37.1024ZM27.9825 36.6637C28.1001 36.6637 28.1854 36.6872 28.2413 36.7343C28.2972 36.7814 28.3267 36.8521 28.3267 36.9493C28.3267 37.0405 28.3002 37.1024 28.2531 37.1465C28.2031 37.1877 28.1413 37.2113 28.0648 37.2201L28.3472 37.6559H28.1854L27.9148 37.229H27.753V37.6559H27.5971V36.6666H27.9795L27.9825 36.6637ZM27.2882 37.4409C27.3205 37.5293 27.3706 37.6088 27.4323 37.6735C27.4941 37.7383 27.5677 37.7883 27.653 37.8266C27.7353 37.862 27.8295 37.8796 27.9266 37.8796C28.0236 37.8796 28.1178 37.862 28.2002 37.8266C28.2855 37.7883 28.3561 37.7383 28.4208 37.6735C28.4796 37.6088 28.5296 37.5322 28.5649 37.4409C28.6002 37.3526 28.6208 37.2584 28.6208 37.1554C28.6208 37.0523 28.6032 36.9581 28.5649 36.8698C28.5296 36.7814 28.4796 36.7049 28.4208 36.6401C28.3561 36.5754 28.2825 36.5253 28.2002 36.49C28.1178 36.4546 28.0266 36.434 27.9266 36.434C27.8265 36.434 27.7353 36.4546 27.653 36.49C27.5677 36.5282 27.4941 36.5783 27.4323 36.6401C27.3676 36.7049 27.3205 36.7814 27.2882 36.8698C27.2529 36.9581 27.2352 37.0494 27.2352 37.1554C27.2352 37.2613 27.2529 37.3526 27.2882 37.4409ZM27.1499 36.8197C27.1941 36.7167 27.2558 36.6313 27.3323 36.5547C27.4088 36.4782 27.5 36.4223 27.603 36.3781C27.7059 36.3339 27.8148 36.3133 27.9295 36.3133C28.0442 36.3133 28.156 36.3339 28.259 36.3781C28.359 36.4223 28.4473 36.4782 28.5238 36.5547C28.6002 36.6313 28.662 36.7196 28.7061 36.8197C28.7532 36.9228 28.7738 37.0346 28.7738 37.1554C28.7738 37.2761 28.7532 37.3879 28.7061 37.491C28.662 37.597 28.6002 37.6853 28.5238 37.7618C28.4473 37.8413 28.359 37.8973 28.259 37.9414C28.156 37.9827 28.0472 38.0033 27.9295 38.0033C27.8118 38.0033 27.7059 37.9827 27.603 37.9414C27.5 37.8973 27.4088 37.8413 27.3323 37.7618C27.2558 37.6853 27.1941 37.597 27.1499 37.491C27.1029 37.3879 27.0852 37.2761 27.0852 37.1554C27.0852 37.0346 27.1029 36.9228 27.1499 36.8197Z" fill="#0D0D0D"/>
    <path d="M4.00959 1.48973C3.94193 1.3808 3.85956 1.28659 3.75953 1.20709C3.65951 1.12466 3.54478 1.06283 3.41828 1.01572C3.29179 0.97156 3.1594 0.948007 3.02114 0.948007C2.76814 0.948007 2.55339 0.998057 2.37394 1.09521C2.19743 1.19237 2.05328 1.32486 1.94443 1.48973C1.83559 1.65461 1.75321 1.84303 1.7032 2.05501C1.65319 2.26699 1.62672 2.48486 1.62672 2.70862C1.62672 2.93237 1.65025 3.13258 1.7032 3.33572C1.75321 3.53887 1.83264 3.72141 1.94443 3.88628C2.05328 4.04821 2.19743 4.1807 2.37394 4.27786C2.55045 4.37501 2.7652 4.42507 3.02114 4.42507C3.36533 4.42507 3.63598 4.31908 3.8272 4.11004C4.02136 3.89806 4.13903 3.62131 4.18316 3.27684H5.27457C5.24515 3.59775 5.17161 3.88628 5.05099 4.14537C4.93038 4.40446 4.77446 4.62527 4.57736 4.80486C4.38026 4.9874 4.1508 5.12578 3.88898 5.22293C3.62715 5.31715 3.33591 5.3672 3.02114 5.3672C2.62988 5.3672 2.27686 5.29948 1.96208 5.16111C1.64731 5.02568 1.38549 4.83725 1.16779 4.59583C0.95304 4.35735 0.788298 4.07471 0.673567 3.75085C0.558836 3.42994 0.5 3.08253 0.5 2.70862C0.5 2.33471 0.555895 1.96963 0.673567 1.64283C0.788298 1.31603 0.95304 1.0275 1.16779 0.786078C1.38255 0.541712 1.64731 0.350341 1.96208 0.211965C2.27392 0.0735897 2.62693 0.00292969 3.02114 0.00292969C3.30355 0.00292969 3.57126 0.044148 3.82131 0.12364C4.07137 0.206077 4.29789 0.323844 4.49499 0.479884C4.69209 0.635925 4.85683 0.827296 4.98627 1.05694C5.11571 1.28659 5.19808 1.55156 5.23044 1.84598H4.13903C4.12138 1.71643 4.07725 1.59867 4.00959 1.48973Z" fill="#0D0D0D"/>
    <path d="M6.74255 4.36028C6.89552 4.50749 7.11616 4.58404 7.40151 4.58404C7.60744 4.58404 7.78395 4.53399 7.93398 4.43094C8.08107 4.32789 8.17227 4.21896 8.20757 4.10414H9.10483C8.96068 4.54871 8.74004 4.86962 8.44292 5.06099C8.14579 5.25236 7.78689 5.34952 7.36621 5.34952C7.07497 5.34952 6.81021 5.30241 6.5778 5.2082C6.34246 5.11399 6.14536 4.9815 5.98061 4.81074C5.81881 4.63998 5.69232 4.43388 5.60406 4.19246C5.51581 3.95398 5.47168 3.68901 5.47168 3.40343C5.47168 3.11784 5.51581 2.86759 5.607 2.62911C5.6982 2.39063 5.82764 2.1816 5.99532 2.00789C6.16301 1.83419 6.36305 1.69581 6.59545 1.59571C6.82786 1.49561 7.0838 1.44556 7.36621 1.44556C7.68099 1.44556 7.95752 1.50738 8.19286 1.62809C8.42821 1.75175 8.61943 1.91368 8.76946 2.11977C8.91949 2.32586 9.02834 2.5614 9.096 2.82343C9.16366 3.08546 9.1872 3.36221 9.1666 3.65074H6.48955C6.50426 3.98048 6.58663 4.2219 6.7396 4.36911L6.74255 4.36028ZM7.89574 2.40535C7.77218 2.27287 7.58685 2.20515 7.33973 2.20515C7.17793 2.20515 7.04261 2.23165 6.93376 2.28759C6.82492 2.34353 6.7396 2.41124 6.67488 2.49074C6.61016 2.57317 6.56604 2.65855 6.53956 2.74982C6.51308 2.84109 6.49837 2.92058 6.49249 2.99419H8.15168C8.10461 2.7351 8.01929 2.53784 7.89574 2.40535Z" fill="#0D0D0D"/>
    <path d="M10.5963 1.53684V2.22577H10.611C10.658 2.11095 10.7228 2.00496 10.8051 1.90486C10.8875 1.8077 10.9787 1.72232 11.0846 1.65461C11.1905 1.58689 11.3023 1.53095 11.4229 1.49268C11.5435 1.4544 11.6671 1.43674 11.7965 1.43674C11.8642 1.43674 11.9377 1.44851 12.0201 1.47207V2.42009C11.973 2.41126 11.9142 2.40242 11.8465 2.39653C11.7789 2.39065 11.7142 2.38476 11.6524 2.38476C11.467 2.38476 11.3082 2.41714 11.1787 2.47897C11.0493 2.5408 10.9463 2.62618 10.8669 2.73511C10.7875 2.84405 10.7316 2.9677 10.6992 3.11197C10.6669 3.25623 10.6492 3.41227 10.6492 3.58009V5.25532H9.63135V1.53684H10.5992H10.5963Z" fill="#0D0D0D"/>
    <path d="M14.7472 1.53684V2.21989H13.9999V4.05999C13.9999 4.2337 14.0294 4.34852 14.0852 4.40446C14.1411 4.4604 14.2588 4.48984 14.4294 4.48984C14.4883 4.48984 14.5412 4.48984 14.5942 4.48395C14.6471 4.47807 14.6971 4.47218 14.7442 4.46334V5.25238C14.6589 5.2671 14.5618 5.27593 14.4559 5.28182C14.35 5.28771 14.247 5.29065 14.147 5.29065C13.9882 5.29065 13.8381 5.27888 13.6999 5.25827C13.5587 5.23766 13.4351 5.19644 13.3263 5.13167C13.2174 5.06984 13.135 4.98152 13.0703 4.86669C13.0085 4.75187 12.9762 4.60172 12.9762 4.41329V2.21989H12.3584V1.53684H12.9762V0.42395H13.994V1.53684H14.7413H14.7472Z" fill="#0D0D0D"/>
    <path d="M15.3386 0.962728V0.120697H16.3565V0.962728H15.3386ZM16.3565 1.53684V5.24943H15.3386V1.53684H16.3565Z" fill="#0D0D0D"/>
    <path d="M16.7625 2.21989V1.53684H17.3714V1.24831C17.3714 0.918566 17.4744 0.647703 17.6803 0.435723C17.8862 0.223743 18.1981 0.120697 18.6129 0.120697C18.7041 0.120697 18.7952 0.123641 18.8864 0.132474C18.9776 0.138362 19.0659 0.147195 19.1512 0.150139V0.912677C19.0306 0.897956 18.907 0.892068 18.7776 0.892068C18.6393 0.892068 18.5393 0.924454 18.4805 0.989226C18.4216 1.054 18.3922 1.16293 18.3922 1.31603V1.53978H19.0953V2.22283H18.3922V5.25532H17.3714V2.21989H16.7625Z" fill="#0D0D0D"/>
    <path d="M19.7866 0.962728V0.120697H20.8045V0.962728H19.7866ZM20.8045 1.53684V5.24943H19.7866V1.53684H20.8045Z" fill="#0D0D0D"/>
    <path d="M22.4137 4.36028C22.5666 4.50749 22.7873 4.58404 23.0726 4.58404C23.2786 4.58404 23.4551 4.53399 23.6051 4.43094C23.7522 4.32789 23.8434 4.21896 23.8787 4.10414H24.776C24.6318 4.54871 24.4112 4.86962 24.117 5.06099C23.8199 5.25236 23.461 5.34952 23.0403 5.34952C22.749 5.34952 22.4843 5.30241 22.2519 5.2082C22.0165 5.11399 21.8194 4.9815 21.6547 4.81074C21.4929 4.63998 21.3664 4.43388 21.2781 4.19246C21.1899 3.95398 21.1458 3.68901 21.1458 3.40343C21.1458 3.11784 21.1928 2.86759 21.2811 2.62911C21.3723 2.39063 21.5017 2.1816 21.6694 2.00789C21.8371 1.83419 22.0371 1.69581 22.2695 1.59571C22.5019 1.49561 22.7579 1.44556 23.0403 1.44556C23.3551 1.44556 23.6316 1.50738 23.8669 1.62809C24.1023 1.75175 24.2935 1.91368 24.4435 2.11977C24.5936 2.32586 24.7024 2.5614 24.7701 2.82343C24.8377 3.08546 24.8613 3.36221 24.8436 3.65074H22.1666C22.1813 3.98048 22.2636 4.2219 22.4166 4.36911L22.4137 4.36028ZM23.5669 2.40535C23.4463 2.27287 23.258 2.20515 23.0109 2.20515C22.8491 2.20515 22.7137 2.23165 22.6049 2.28759C22.496 2.34353 22.4107 2.41124 22.346 2.49074C22.2813 2.57317 22.2372 2.65855 22.2107 2.74982C22.1842 2.84109 22.1695 2.92058 22.1636 2.99419H23.8199C23.7728 2.7351 23.6875 2.53784 23.5639 2.40535H23.5669Z" fill="#0D0D0D"/>
    <path d="M27.9324 4.77542C27.8118 4.97562 27.6559 5.12283 27.4617 5.21116C27.2676 5.29948 27.0499 5.34365 26.8057 5.34365C26.5292 5.34365 26.285 5.29065 26.0732 5.18172C25.8614 5.07278 25.6878 4.92852 25.5525 4.74304C25.4172 4.55755 25.3142 4.34557 25.2436 4.1071C25.173 3.86862 25.1406 3.61836 25.1406 3.35928C25.1406 3.10019 25.1759 2.87055 25.2436 2.63796C25.3112 2.40537 25.4172 2.20222 25.5525 2.02263C25.6878 1.84598 25.8614 1.70171 26.0644 1.59572C26.2703 1.48679 26.5086 1.43379 26.7822 1.43379C27.0028 1.43379 27.2117 1.4809 27.4088 1.57511C27.6088 1.66933 27.7647 1.80476 27.8795 1.9873H27.8942V0.120697H28.912V5.24943H27.9442V4.77542H27.9295H27.9324ZM27.8883 2.94121C27.8589 2.79989 27.8118 2.67623 27.7412 2.5673C27.6706 2.45836 27.5823 2.37298 27.4705 2.30527C27.3617 2.23755 27.2205 2.20517 27.0557 2.20517C26.891 2.20517 26.7469 2.23755 26.6321 2.30527C26.5174 2.37298 26.4262 2.46131 26.3556 2.57024C26.2879 2.67918 26.2379 2.80578 26.2056 2.9471C26.1732 3.08841 26.1585 3.23562 26.1585 3.38872C26.1585 3.53298 26.1761 3.67725 26.2085 3.81857C26.2409 3.96283 26.2968 4.08943 26.3703 4.20425C26.4439 4.31613 26.538 4.4074 26.6498 4.47806C26.7616 4.54872 26.8969 4.58111 27.0557 4.58111C27.2234 4.58111 27.3617 4.54872 27.4764 4.481C27.5882 4.41329 27.6794 4.32496 27.7471 4.21014C27.8147 4.09826 27.8618 3.96872 27.8912 3.8274C27.9206 3.68314 27.9354 3.53593 27.9354 3.38283C27.9354 3.22973 27.9206 3.08253 27.8912 2.94121H27.8883Z" fill="#0D0D0D"/>
    <path d="M3.06232 44.6807C3.01231 44.3215 2.66812 44.0477 2.27392 44.0477C1.562 44.0477 1.29429 44.6542 1.29429 45.2872C1.29429 45.9202 1.562 46.4943 2.27392 46.4943C2.75932 46.4943 3.03291 46.1616 3.09174 45.6846H3.8625C3.78013 46.5855 3.1594 47.1626 2.27392 47.1626C1.15603 47.1626 0.5 46.3264 0.5 45.2872C0.5 44.2479 1.15603 43.3793 2.27392 43.3793C3.06821 43.3793 3.73306 43.8445 3.83014 44.6807H3.06232Z" fill="#0D0D0D"/>
    <path d="M5.51875 44.3921C6.34246 44.3921 6.87199 44.9368 6.87199 45.7729C6.87199 46.6091 6.34246 47.1479 5.51875 47.1479C4.69504 47.1479 4.16846 46.6002 4.16846 45.7729C4.16846 44.9456 4.69798 44.3921 5.51875 44.3921ZM5.51875 46.6061C6.01004 46.6061 6.15418 46.1851 6.15418 45.7729C6.15418 45.3608 6.00709 44.9338 5.51875 44.9338C5.03041 44.9338 4.88626 45.3549 4.88626 45.7729C4.88626 46.191 5.03335 46.6061 5.51875 46.6061Z" fill="#0D0D0D"/>
    <path d="M7.31616 44.4569H7.99866V44.9427H8.01043C8.13987 44.6129 8.49583 44.3862 8.84591 44.3862C8.89592 44.3862 8.9577 44.3951 9.00182 44.4098V45.0781C8.93416 45.0634 8.82826 45.0546 8.74294 45.0546C8.21636 45.0546 8.03397 45.4344 8.03397 45.8936V47.0713H7.31616V44.4569Z" fill="#0D0D0D"/>
    <path d="M9.27833 44.4628H9.96083V44.7955H9.96966C10.1403 44.5187 10.4227 44.3921 10.7463 44.3921C11.5671 44.3921 11.9348 45.0546 11.9348 45.7965C11.9348 46.4943 11.5524 47.1479 10.7875 47.1479C10.4757 47.1479 10.1756 47.0124 10.005 46.7533H9.99319V47.9987H9.27539V44.4628H9.27833ZM11.2199 45.7788C11.2199 45.3637 11.0522 44.9338 10.5933 44.9338C10.1344 44.9338 9.9726 45.3549 9.9726 45.7788C9.9726 46.2028 10.1344 46.6091 10.5992 46.6091C11.064 46.6091 11.2199 46.2057 11.2199 45.7788Z" fill="#0D0D0D"/>
    <path d="M13.5117 44.3921C14.3354 44.3921 14.8678 44.9368 14.8678 45.7729C14.8678 46.6091 14.3354 47.1479 13.5117 47.1479C12.6879 47.1479 12.1643 46.6002 12.1643 45.7729C12.1643 44.9456 12.6938 44.3921 13.5117 44.3921ZM13.5117 46.6061C14.0029 46.6061 14.15 46.1851 14.15 45.7729C14.15 45.3608 14.0029 44.9338 13.5117 44.9338C13.0204 44.9338 12.8792 45.3549 12.8792 45.7729C12.8792 46.191 13.0263 46.6061 13.5117 46.6061Z" fill="#0D0D0D"/>
    <path d="M15.3091 44.4569H15.9916V44.9427H16.0034C16.1328 44.6129 16.4888 44.3862 16.8359 44.3862C16.8859 44.3862 16.9477 44.3951 16.9918 44.4098V45.0781C16.9271 45.0634 16.8212 45.0546 16.7329 45.0546C16.2063 45.0546 16.024 45.4344 16.024 45.8936V47.0713H15.3062V44.4569H15.3091Z" fill="#0D0D0D"/>
    <path d="M17.2037 45.2665C17.2449 44.5923 17.845 44.3921 18.4334 44.3921C18.9541 44.3921 19.5807 44.5069 19.5807 45.1341V46.4943C19.5807 46.7327 19.6042 46.9683 19.6719 47.0772H18.9423C18.9188 46.9948 18.8952 46.9094 18.8923 46.824C18.6658 47.0625 18.3334 47.1479 18.0127 47.1479C17.5185 47.1479 17.1243 46.9005 17.1243 46.3647C17.1243 45.7729 17.5685 45.6316 18.0127 45.5698C18.454 45.505 18.8629 45.5197 18.8629 45.2253C18.8629 44.9309 18.6481 44.872 18.3981 44.872C18.1245 44.872 17.948 44.9839 17.9215 45.2665H17.2037ZM18.8629 45.7965C18.7393 45.9025 18.4893 45.9084 18.2657 45.9496C18.0421 45.9937 17.8421 46.0703 17.8421 46.3353C17.8421 46.6002 18.048 46.668 18.2833 46.668C18.8423 46.668 18.8658 46.2234 18.8658 46.0674V45.7994L18.8629 45.7965Z" fill="#0D0D0D"/>
    <path d="M21.0309 44.4628H21.5575V44.9427H21.0309V46.2381C21.0309 46.4825 21.0927 46.5414 21.3339 46.5414C21.4104 46.5414 21.481 46.5355 21.5575 46.5208V47.0831C21.4369 47.1037 21.278 47.1096 21.1368 47.1096C20.6985 47.1096 20.3131 47.0065 20.3131 46.4884V44.9456H19.8777V44.4657H20.3131V43.6826H21.0309V44.4657V44.4628Z" fill="#0D0D0D"/>
    <path d="M22.8138 44.0594H22.0959V43.4677H22.8138V44.0594ZM22.0959 44.4657H22.8138V47.0801H22.0959V44.4657Z" fill="#0D0D0D"/>
    <path d="M24.6464 44.3921C25.4701 44.3921 26.0026 44.9368 26.0026 45.7729C26.0026 46.6091 25.4701 47.1479 24.6464 47.1479C23.8227 47.1479 23.2991 46.6002 23.2991 45.7729C23.2991 44.9456 23.8286 44.3921 24.6464 44.3921ZM24.6464 46.6061C25.1377 46.6061 25.2848 46.1851 25.2848 45.7729C25.2848 45.3608 25.1377 44.9338 24.6464 44.9338C24.1551 44.9338 24.0139 45.3549 24.0139 45.7729C24.0139 46.191 24.161 46.6061 24.6464 46.6061Z" fill="#0D0D0D"/>
    <path d="M26.4646 44.4628H27.1471V44.8279H27.1618C27.3442 44.5334 27.656 44.3921 27.962 44.3921C28.7239 44.3921 28.9181 44.822 28.9181 45.4697V47.0772H28.2003V45.5992C28.2003 45.1694 28.0738 44.9574 27.7413 44.9574C27.3501 44.9574 27.1853 45.1753 27.1853 45.7082V47.0801H26.4675V44.4657L26.4646 44.4628Z" fill="#0D0D0D"/>
  </g>
  <defs>
    <clipPath id="clip0_10863_8474">
      <rect width="28.4444" height="47.9987" fill="white" transform="translate(0.5)"/>
    </clipPath>
  </defs>
</svg>