<svg xmlns="http://www.w3.org/2000/svg"  viewBox="0 0 52 20" fill="none">
<g clip-path="url(#clip0_10840_8502)">
<path d="M25.3741 5.69423H25.8685V4.25203H26.4495V3.86438H24.7922V4.25203H25.3741V5.69423Z" fill="#0D0D0D"/>
<path d="M25.8632 6.40533H25.3689V8.23432H25.8632V6.40533Z" fill="#0D0D0D"/>
<path d="M25.2641 10.5455H25.9518L26.0776 10.9063H26.5797L25.8807 9.07727H25.3482L24.6519 10.9063H25.1375L25.2633 10.5455H25.2641ZM25.6023 9.57332H25.6162L25.8348 10.2012H25.3847L25.6032 9.57332H25.6023Z" fill="#0D0D0D"/>
<path d="M26.5986 11.692H26.0306L25.4001 12.41V11.692H24.9058V13.5209H25.4001V12.972L25.5692 12.7864L26.0548 13.5209H26.648L25.93 12.4534L26.5986 11.692Z" fill="#0D0D0D"/>
<path d="M25.8564 14.3066H25.3621V16.1356H25.8564V14.3066Z" fill="#0D0D0D"/>
<path d="M48.8266 0.264504V8.13286C48.8266 8.89342 48.308 9.1822 47.8648 9.19868C47.8501 9.19868 47.8362 9.19955 47.8223 9.19868C47.4607 9.19608 47.2057 8.95326 47.191 8.93851C46.8641 8.61764 46.9369 8.16148 46.943 8.12332C46.9542 8.15974 47.0314 8.39216 47.2613 8.48409C47.2968 8.49883 47.4338 8.55346 47.5908 8.50317C47.6775 8.47541 47.733 8.42685 47.753 8.40864C47.9429 8.23866 47.9568 7.92733 47.9585 7.85101C47.9706 7.46856 47.9767 4.43153 47.9585 0.261902H44.3066V0.898447C44.7263 0.898447 45.0732 0.961755 45.31 1.08143C45.5771 1.21672 45.6959 1.41011 45.6959 1.7093V15.2814C45.6959 16.8815 45.3768 18.034 44.7472 18.707C44.2407 19.2481 43.6302 19.3617 43.207 19.3617C42.7838 19.3617 42.1732 19.2481 41.6668 18.707C41.0372 18.034 40.718 16.8815 40.718 15.2814V1.71104C40.718 1.41185 40.8368 1.21845 41.1039 1.08317C41.3407 0.963489 41.6876 0.900181 42.1073 0.900181V0.264504H38.4875C38.4693 4.43413 38.4754 7.47116 38.4875 7.85361C38.4901 7.92993 38.504 8.24126 38.693 8.41124C38.713 8.42945 38.7685 8.47715 38.8552 8.50577C39.0113 8.55607 39.1492 8.50143 39.1848 8.48669C39.4146 8.3939 39.4918 8.16234 39.503 8.12592C39.51 8.16321 39.5828 8.62024 39.255 8.94112C39.2403 8.95586 38.9853 9.19868 38.6237 9.20128C38.6098 9.20128 38.595 9.20128 38.5812 9.20128C38.138 9.18481 37.6194 8.89602 37.6194 8.13546V0.264504H34.5833V0.901049C35.003 0.901049 35.3499 0.964356 35.5866 1.08403C35.8537 1.21932 35.9725 1.41271 35.9725 1.71191V13.7794C35.9725 14.9796 36.1633 16.016 36.5397 16.858C36.8953 17.6542 37.4278 18.3054 38.1233 18.7928C39.2984 19.6167 40.914 20.0009 43.2078 20.0009C45.5016 20.0009 47.1173 19.6167 48.2924 18.7928C48.987 18.3054 49.5204 17.6542 49.8759 16.858C50.2523 16.0151 50.4431 14.9796 50.4431 13.7794V1.71104C50.4431 1.41185 50.5619 1.21845 50.829 1.08317C51.0658 0.963489 51.4127 0.900181 51.8324 0.900181V0.264504H48.8275H48.8266ZM39.4016 17.792C38.4702 17.0835 38.2308 14.5226 38.2456 13.3926L38.2482 11.8749C38.2482 11.8749 38.2603 11.5914 38.2482 11.2072C38.2456 11.1309 38.2317 10.8195 38.0426 10.6496C38.0227 10.6313 37.9672 10.5836 37.8805 10.555C37.7243 10.5047 37.5865 10.5594 37.5509 10.5741C37.3211 10.6669 37.2439 10.8984 37.2326 10.9349C37.2257 10.8976 37.1528 10.4406 37.4807 10.1197C37.4954 10.1049 37.7504 9.86211 38.112 9.85951C38.1259 9.85951 38.1406 9.85951 38.1545 9.85951C38.5976 9.87599 39.1162 10.1648 39.1162 10.9253V11.8715C39.0954 13.2963 39.0209 14.8625 39.2394 16.2666C39.3183 16.839 39.4389 17.4079 39.6088 17.9551L39.4024 17.7894L39.4016 17.792ZM49.2142 10.9357C49.203 10.8993 49.1258 10.6669 48.896 10.575C48.8604 10.5602 48.7234 10.5056 48.5664 10.5559C48.4797 10.5836 48.4242 10.6322 48.4043 10.6504C48.2143 10.8204 48.2005 11.1317 48.1987 11.208C48.1866 11.5922 48.1987 11.8758 48.1987 11.8758L48.2005 13.3935C48.2152 14.5235 47.9767 17.0844 47.0444 17.7929L46.838 17.9585C47.008 17.4113 47.1286 16.8424 47.2075 16.2701C47.4252 14.8651 47.3514 13.2998 47.3306 11.8749V10.9288C47.3306 10.1682 47.8492 9.87946 48.2924 9.86298C48.3071 9.86298 48.321 9.86211 48.3349 9.86298C48.6965 9.86471 48.9515 10.1084 48.9662 10.1231C49.2932 10.444 49.2203 10.9002 49.2142 10.9383V10.9357Z" fill="#0D0D0D"/>
<path d="M14.1668 1.9105C13.3031 1.11439 12.1627 0.529009 10.75 0.358165C9.78648 0.241089 8.80738 0.254965 8.34254 0.254965L4.80339 0.260168C4.78518 4.43153 4.79125 7.4703 4.80339 7.85275C4.80599 7.92906 4.81987 8.2404 5.00892 8.41037C5.02887 8.42858 5.08437 8.47628 5.17109 8.5049C5.32719 8.5552 5.46508 8.50056 5.50064 8.48582C5.73045 8.39303 5.80764 8.16148 5.81891 8.12505C5.82585 8.16234 5.8987 8.61937 5.57088 8.94025C5.55614 8.95499 5.30118 9.19781 4.93954 9.20042C4.92567 9.20042 4.91093 9.20042 4.89705 9.20042C4.4539 9.18394 3.93529 8.89515 3.93529 8.13459V0.261903L0.943359 0.266239V0.902784C1.3631 0.902784 1.70999 0.966092 1.94674 1.08577C2.21385 1.22106 2.33266 1.41445 2.33266 1.71364V17.9768C2.33266 18.7581 1.93026 19.0764 0.943359 19.0764V19.7129H4.56056C4.57878 15.5104 4.57271 11.6685 4.56056 11.2844C4.55796 11.208 4.54409 10.8967 4.35503 10.7267C4.33509 10.7085 4.27958 10.6608 4.19286 10.6322C4.03676 10.5819 3.89887 10.6365 3.86331 10.6513C3.6335 10.7441 3.55632 10.9756 3.54504 11.0121C3.5381 10.9748 3.46526 10.5177 3.79307 10.1969C3.80781 10.1821 4.06278 9.93929 4.42441 9.93669C4.43829 9.93669 4.45303 9.93669 4.4669 9.93669C4.91006 9.95317 5.42866 10.242 5.42866 11.0025V19.7095H8.46742V19.0729C7.48052 19.0729 7.07813 18.7547 7.07813 17.9733V13.6354C7.52648 13.6649 8.32347 13.6875 9.26874 13.5851C11.187 13.3779 12.794 12.7448 13.9162 11.7544C15.276 10.5542 15.9663 8.83618 15.9663 6.6473C15.9663 4.60411 15.3601 3.00928 14.1651 1.90703L14.1668 1.9105ZM9.43091 11.9027C8.97736 12.3537 8.21333 12.8827 7.07986 12.9607V2.08742C7.07986 1.79169 7.07986 1.31905 7.46491 1.07796C7.68258 0.941809 8.02601 0.893244 8.40498 0.89151H8.41539C8.64954 0.89151 9.25487 0.956552 9.83157 1.55667C10.6658 2.42477 11.1064 4.07597 11.1064 6.33163C11.1064 8.9229 10.5427 10.7961 9.43091 11.9018V11.9027ZM12.3153 11.0563L11.8713 11.496L12.1028 10.9158C12.1089 10.8993 12.1228 10.8707 12.1427 10.8291C12.3691 10.3521 13.0403 8.74339 13.0507 6.51721C13.0542 5.774 13.0473 4.37603 12.3977 2.77339C12.3075 2.55138 12.2234 2.37013 12.1627 2.24612L12.5208 2.58347C12.8582 2.90088 13.9604 4.1254 13.9604 6.5389C13.9604 8.34793 13.3456 10.0373 12.3153 11.0571V11.0563Z" fill="#0D0D0D"/>
<path d="M25.6648 0C20.8031 0 17.3879 3.90686 17.3879 9.98352C17.3879 16.0602 20.8031 19.967 25.6648 19.967C30.5264 19.967 33.9121 16.0602 33.9121 9.98352C33.9121 3.90686 30.4969 0 25.6648 0ZM21.9253 17.263C20.229 15.7688 19.2187 13.259 19.1553 10.3764C19.0877 7.33241 20.1136 4.41245 21.8333 2.75778L22.0025 2.59474L21.9027 2.80722C20.9063 4.92845 20.3547 7.16417 20.2637 9.45365C20.2134 10.7033 20.1093 13.3041 21.398 16.0845C21.5758 16.4687 21.7761 16.8468 21.992 17.2084L22.1343 17.4469L21.9261 17.2639L21.9253 17.263ZM25.6648 19.3886C22.8575 19.3886 22.221 13.8904 22.221 10.0416C22.221 6.19287 22.8575 0.578441 25.6648 0.578441C28.472 0.578441 29.1371 6.22149 29.1371 10.0416C29.1371 13.8618 28.4425 19.3886 25.6648 19.3886ZM32.247 10.3755C32.1828 13.2582 31.1734 15.7679 29.4771 17.2622L29.269 17.4452L29.4112 17.2075C29.6271 16.8459 29.8275 16.4678 30.0052 16.0836C31.2939 13.3024 31.1899 10.7025 31.1396 9.45278C31.0476 7.16417 30.4961 4.92759 29.5005 2.80635L29.4008 2.59388L29.5699 2.75692C31.2887 4.41245 32.3155 7.33154 32.2479 10.3755H32.247Z" fill="#0D0D0D"/>
</g>
<defs>
<clipPath id="clip0_10840_8502">
<rect width="50.8863" height="20" fill="white" transform="translate(0.944336)"/>
</clipPath>
</defs>
</svg>